HIERARCHY
ROOT hip
{
	OFFSET 0.000000 0.000000 0.000000 
	CHANNELS 6 Xposition Yposition Zposition Xrotation Zrotation Yrotation
	JOINT abdomen
	{
		OFFSET 0.000000 3.402643 0.000000 
		CHANNELS 3 Xrotation Zrotation Yrotation
		JOINT chest
		{
			OFFSET 0.000000 8.438565 -0.680529 
			CHANNELS 3 Xrotation Zrotation Yrotation
			JOINT neck
			{
				OFFSET 0.000000 10.207942 -0.272212 
				CHANNELS 3 Xrotation Zrotation Yrotation
				JOINT head
				{
					OFFSET 0.000000 3.130431 0.000000 
					CHANNELS 3 Xrotation Zrotation Yrotation
					End Site
					{
						OFFSET 0.000000 3.130435 0.000000 
					}
				}
			}
			JOINT lCollar
			{
				OFFSET 3.470700 6.669187 -0.816635 
				CHANNELS 3 Yrotation Zrotation Xrotation
				JOINT lShldr
				{
					OFFSET 3.198488 0.000000 0.000000 
					CHANNELS 3 Zrotation Yrotation Xrotation
					JOINT lForeArm
					{
						OFFSET 10.139888 0.000000 0.000000 
						CHANNELS 3 Yrotation Zrotation Xrotation
						JOINT lHand
						{
							OFFSET 8.370511 0.000000 0.000000 
							CHANNELS 3 Zrotation Yrotation Xrotation
							End Site
							{
								OFFSET 4.083176 0.000000 0.000000 
							}
						}
					}
				}
			}
			JOINT rCollar
			{
				OFFSET -3.470700 6.669187 -0.816635 
				CHANNELS 3 Yrotation Zrotation Xrotation
				JOINT rShldr
				{
					OFFSET -3.198488 0.000000 0.000000 
					CHANNELS 3 Zrotation Yrotation Xrotation
					JOINT rForeArm
					{
						OFFSET -10.139888 0.000000 0.000000 
						CHANNELS 3 Yrotation Zrotation Xrotation
						JOINT rHand
						{
							OFFSET -8.370511 0.000000 0.000000 
							CHANNELS 3 Zrotation Yrotation Xrotation
							End Site
							{
								OFFSET -4.083176 0.000000 0.000000 
							}
						}
					}
				}
			}
		}
	}
	JOINT lThigh
	{
		OFFSET 5.308129 -1.633274 1.361059 
		CHANNELS 3 Xrotation Zrotation Yrotation
		JOINT lShin
		{
			OFFSET -2.041588 -20.007561 0.000000 
			CHANNELS 3 Xrotation Zrotation Yrotation
			JOINT lFoot
			{
				OFFSET 0.000000 -19.190928 -1.224953 
				CHANNELS 3 Xrotation Yrotation Zrotation
				End Site
				{
					OFFSET 0.000000 -2.449906 4.627600 
				}
			}
		}
	}
	JOINT rThigh
	{
		OFFSET -5.308129 -1.633274 1.361059 
		CHANNELS 3 Xrotation Zrotation Yrotation
		JOINT rShin
		{
			OFFSET 2.041588 -20.007561 0.000000 
			CHANNELS 3 Xrotation Zrotation Yrotation
			JOINT rFoot
			{
				OFFSET 0.000000 -19.190928 -1.224953 
				CHANNELS 3 Xrotation Yrotation Zrotation
				End Site
				{
					OFFSET 0.000000 -2.449906 4.627600 
				}
			}
		}
	}
}
MOTION
Frames: 18
Frame Time: 0.033333
0.046648 48.684063 0.046648 -0.008738 -0.014127 -26.523438 25.009035 6.647162 -18.303823 1.220704 -0.078107 1.004182 -8.544922 -0.001505 -0.009645 19.807169 16.865419 47.852581 2.000000 -2.000000 0.000000 -6.866425 -49.250053 -30.875416 -46.275909 -0.599773 8.546930 -37.537178 -54.121536 -161.565201 -2.000000 2.000000 0.000000 -31.093695 135.332642 -91.178314 54.419010 0.554422 8.622923 13.129195 -54.090107 -39.614330 -27.562605 22.043089 15.241084 23.248598 -1.456056 -2.051687 8.015349 -6.686378 -10.473127 7.702938 -17.116440 -13.601160 22.967258 1.441967 1.995397 -22.229979 -16.175598 16.776833 
0.046648 48.543793 0.046648 -0.321356 -0.131069 -24.940710 25.731592 5.303030 -14.594436 1.220704 -0.078107 1.004182 -8.544922 -0.001505 -0.009645 16.668890 16.104776 48.921024 2.000000 -2.000000 0.000000 -27.877352 -39.835949 -4.524298 -55.512730 -0.558305 8.634208 -31.334702 -49.386665 -151.317947 -2.000000 2.000000 0.000000 128.714539 43.805691 72.343262 63.585190 0.523222 8.708609 8.300172 -55.984474 -30.876518 -28.837280 22.089041 15.871655 24.912176 -1.407193 -2.158535 7.980999 -7.299426 -9.564753 7.592190 -16.964577 -13.849023 24.778679 1.369369 2.105007 -23.006195 -18.191263 16.702024 
0.036631 48.178253 0.036631 -0.985720 -0.325653 -20.590206 28.137522 0.744294 -2.774452 3.691437 -0.233889 3.061042 -8.544922 -0.001505 -0.009645 9.842843 13.873536 48.858746 2.000000 -2.000000 0.000000 -48.338249 -15.114152 19.660501 -61.464279 -0.536271 8.692486 -27.132870 -37.170956 -122.962791 -2.000000 2.000000 0.000000 94.686562 30.131739 41.142593 79.392906 0.503358 8.872055 -3.450329 -55.092255 -12.897618 -30.621790 21.255808 16.633694 26.370140 -1.348951 -2.251486 8.828389 -8.242117 -7.536889 8.914774 -15.858861 -14.778588 26.373032 1.324505 2.197694 -24.011324 -23.109081 16.223284 
0.036631 48.243259 0.036631 -1.767375 -0.412153 -12.956170 29.064528 -5.760949 12.090576 6.425961 -0.426988 5.342465 -8.544922 -0.001505 -0.009645 1.566449 8.880343 43.548828 2.000000 -2.000000 0.000000 -64.766640 0.550793 17.725918 -36.806538 -0.660483 8.466377 -29.320591 -10.430745 -85.680550 -2.000000 2.000000 0.000000 78.376076 0.582775 15.667296 88.968002 0.512392 8.967609 -12.626823 -43.753872 -0.499667 -30.689587 18.062447 16.270590 23.356522 -1.455915 -2.047542 11.913318 -8.572215 -4.830140 13.801031 -12.535050 -16.617670 23.094582 1.432134 2.009953 -23.741772 -30.640276 15.035531 
0.036631 48.223259 0.036631 -2.373008 -0.284111 -6.755900 28.428841 -11.186226 24.177168 8.545392 -0.598748 7.077905 -8.544922 -0.001505 -0.009645 -3.363624 4.854915 35.658394 2.000000 -2.000000 0.000000 -39.230789 6.888196 38.247623 -2.949354 -0.955993 8.289873 -30.367926 -18.100702 -122.211594 -2.000000 2.000000 0.000000 79.823914 -6.622056 -3.805562 61.138348 0.532767 8.686334 -11.017120 -21.592491 -0.126195 -30.259346 15.142605 15.984536 20.476536 -1.546945 -1.863333 14.361643 -9.777137 -2.617616 17.291166 -9.637414 -17.921925 20.313383 1.516167 1.820782 -23.652687 -36.635410 13.915072 
0.116768 47.927719 0.116768 -2.578097 0.135757 -4.840112 27.781971 -13.241627 29.411484 9.258406 -0.645774 7.668067 -8.544922 -0.001505 -0.009645 -4.766879 3.174445 32.492157 2.000000 -2.000000 0.000000 -7.055881 6.208833 55.992710 31.911276 -1.314955 8.304487 158.088715 -151.131149 6.808441 -2.000000 2.000000 0.000000 82.880791 -12.979919 -11.316120 60.874313 0.536772 8.683981 -10.701795 -15.423976 0.735619 -31.409290 14.271667 15.810257 21.720821 -1.517983 -1.933989 14.340420 -9.926160 -1.998035 16.809843 -9.627398 -18.267042 22.527010 1.451423 1.964416 -24.906986 -39.088387 13.682494 
0.226956 47.582180 0.226956 -2.636904 0.740567 -4.936486 27.562120 -13.491983 30.572245 9.219340 -0.645846 7.629446 -8.544922 -0.001505 -0.009645 -4.543085 2.416263 33.081535 2.000000 -2.000000 0.000000 21.117508 0.369334 68.875626 62.279522 -1.569812 8.485605 -7.676019 -29.302950 135.763336 -2.000000 2.000000 0.000000 84.966049 -15.337021 -12.479336 65.713219 0.516379 8.730869 -11.036428 -15.154185 3.338618 -32.951275 14.222104 15.630029 24.246618 -1.436372 -2.109851 13.460759 -9.072772 -2.162736 14.934628 -10.905924 -18.158155 26.274967 1.324447 2.202343 -26.414051 -39.818653 13.869268 
0.332136 47.256645 0.332136 -2.666888 1.501352 -5.509398 27.597778 -13.101906 29.724421 8.975151 -0.626994 7.430171 -8.544922 -0.001505 -0.009645 -3.943290 2.002432 35.670513 2.000000 -2.000000 0.000000 39.548397 -4.684745 75.549530 82.673943 -1.673877 8.676496 -3.154580 -22.910122 104.239349 -2.000000 2.000000 0.000000 85.899178 -14.612779 -10.829915 68.599831 0.514131 8.758121 -11.621426 -15.975886 6.968086 -34.238220 14.179711 15.478971 26.497154 -1.357163 -2.250119 12.566503 -7.832485 -2.567794 12.957428 -12.470321 -17.846575 29.853310 1.197385 2.415622 -27.803816 -40.115135 14.060992 
0.472375 47.006241 0.472375 -2.746370 2.330387 -5.512102 27.740828 -12.992209 28.367422 8.975151 -0.626994 7.430171 -8.544922 -0.001505 -0.009645 -3.893787 1.916978 38.181347 2.000000 -2.000000 0.000000 45.611694 -4.092651 76.676727 88.586021 -1.688349 8.735588 -9.022470 -19.100719 98.899834 -2.000000 2.000000 0.000000 86.516083 -13.569852 -9.186775 70.099564 0.513957 8.779756 -11.833457 -15.896036 9.729126 -34.912075 13.671872 15.489954 27.593277 -1.300104 -2.313837 12.242759 -7.163804 -2.747346 11.568123 -13.629957 -17.546621 32.550705 1.070384 2.569051 -29.049799 -40.823204 14.033410 
0.617623 46.865971 0.617623 -2.776371 2.652221 -5.509340 27.987036 -12.706894 26.128378 8.975151 -0.626994 7.430171 -8.544922 -0.001505 -0.009645 -3.875720 2.107871 41.323673 2.000000 -2.000000 0.000000 41.988319 -1.981502 76.039551 81.544022 -1.664265 8.659349 -14.284305 -17.892591 109.618927 -2.000000 2.000000 0.000000 85.468269 -13.499345 -7.802951 69.837448 0.511339 8.772484 -10.000397 -14.798179 10.837766 -35.316586 13.413853 15.526389 28.209719 -1.285225 -2.332592 12.065085 -6.707339 -2.729400 10.971400 -14.195217 -17.419758 33.684212 1.021634 2.622645 -29.406734 -41.156918 14.150146 
0.727812 46.966106 0.727812 -2.676858 1.657422 -5.507180 28.262524 -12.346925 23.323961 8.975151 -0.626994 7.430171 -8.544922 -0.001505 -0.009645 -3.889232 2.527419 44.755993 2.000000 -2.000000 0.000000 34.421448 -4.691726 78.188995 67.198441 -1.593196 8.521585 -11.537669 -19.746702 125.032784 -2.000000 2.000000 0.000000 83.524834 -11.766407 -6.106567 66.109955 0.514533 8.738100 -7.593280 -16.537487 10.849195 -35.727341 14.000031 15.364245 28.726984 -1.261160 -2.392600 11.828965 -6.570217 -2.226177 11.755487 -13.475574 -17.708879 32.149902 1.099608 2.546858 -28.092625 -40.839851 14.784576 
0.838000 47.181511 0.838000 -2.529259 0.135650 -5.504057 28.517981 -11.951715 20.352798 8.975151 -0.626994 7.430171 -8.544922 -0.001505 -0.009645 -3.865752 3.071363 48.173119 2.000000 -2.000000 0.000000 24.111507 -8.438580 81.542618 49.055168 -1.466634 8.393258 -6.705094 -24.705463 143.583466 -2.000000 2.000000 0.000000 81.309402 -8.499546 -4.284531 59.662064 0.533629 8.667236 -4.708962 -17.633804 10.413383 -36.091331 14.939804 15.033954 29.108860 -1.246412 -2.399017 11.615891 -6.662836 -1.520722 13.229633 -12.108356 -18.168753 29.149734 1.216934 2.374612 -25.992546 -40.185692 15.598774 
0.928154 47.366779 0.928154 -2.393166 -1.318156 -5.501609 28.710590 -11.609897 18.002148 8.975151 -0.626994 7.430171 -8.544922 -0.001505 -0.009645 -3.832297 3.520161 50.781662 2.000000 -2.000000 0.000000 14.288344 -11.292125 84.859482 32.937328 -1.320512 8.312551 -3.164194 -31.018648 160.072220 -2.000000 2.000000 0.000000 79.483849 -5.361676 -3.005707 53.065289 0.563091 8.607412 -2.013705 -18.444891 10.238919 -36.335613 15.818455 14.769512 29.294262 -1.241760 -2.417227 11.441402 -6.818851 -0.849312 14.843154 -10.684233 -18.536287 25.922722 1.342233 2.178154 -23.911327 -39.455738 16.270250 
0.983248 47.527050 0.983248 -2.316005 -2.128121 -5.509750 28.760601 -11.506766 17.352037 8.975151 -0.626994 7.430171 -8.544922 -0.001505 -0.009645 -3.814033 3.615821 51.562801 2.000000 -2.000000 0.000000 9.243594 -12.654494 86.478928 25.550735 -1.247941 8.285381 -1.147933 -35.459587 167.297089 -2.000000 2.000000 0.000000 78.382858 -4.449435 -3.072580 49.471596 0.577565 8.574255 -0.125859 -20.210278 10.791817 -36.326832 16.258871 14.656597 29.167107 -1.246470 -2.411763 11.429523 -6.923167 -0.465332 15.950314 -9.811930 -18.714293 23.702457 1.408068 2.027520 -22.621223 -38.938919 16.610817 
1.013300 47.522049 1.013300 -2.354481 -1.679219 -5.507205 28.561646 -11.883238 20.031067 8.975151 -0.626994 7.430171 -8.544922 -0.001505 -0.009645 -3.854649 2.957020 48.921398 2.000000 -2.000000 0.000000 14.079368 -12.108179 84.676765 35.270546 -1.343053 8.315628 1.171630 -34.782768 155.231644 -2.000000 2.000000 0.000000 77.717468 -6.744496 -6.367881 51.869213 0.565487 8.595102 1.580933 -22.433626 11.950473 -35.883598 15.806401 14.809081 28.589844 -1.270990 -2.387838 11.651762 -6.816478 -0.604079 15.687428 -10.212861 -18.504496 24.132908 1.402298 2.048791 -23.037985 -38.942455 16.393948 
1.063385 47.492043 1.063385 -2.461034 -0.615608 -5.500927 28.182203 -12.445060 24.421465 8.975151 -0.626994 7.430171 -8.544922 -0.001505 -0.009645 -3.835444 1.955564 44.415180 2.000000 -2.000000 0.000000 23.713612 -9.952831 80.704262 53.790573 -1.510519 8.423288 2.258613 -30.885986 134.163208 -2.000000 2.000000 0.000000 80.585716 -14.054881 -10.493773 60.340195 0.534706 8.679072 0.240802 -25.821415 14.294287 -35.212090 14.890352 15.150324 27.709793 -1.300209 -2.339353 12.001613 -6.643594 -1.000407 14.788285 -11.237577 -18.121895 25.903904 1.334240 2.165770 -24.339670 -39.204800 15.859779 
1.078411 47.421909 1.078411 -2.568427 0.535637 -5.502584 27.788729 -12.906637 28.175180 8.975151 -0.626994 7.430171 -8.544922 -0.001505 -0.009645 -3.752705 1.192801 40.355503 2.000000 -2.000000 0.000000 32.556065 -6.937990 77.059898 70.974854 -1.620816 8.559929 0.572301 -26.611208 115.969536 -2.000000 2.000000 0.000000 84.092468 -19.917751 -14.283782 67.141968 0.515373 8.747103 -1.165143 -25.031265 16.975405 -34.690643 13.998766 15.432116 27.025623 -1.339068 -2.273656 12.296721 -6.561012 -1.421850 13.758167 -12.324173 -17.648546 27.877951 1.275696 2.313248 -25.794376 -39.435883 15.262594 
1.078411 47.261646 1.078411 -2.676768 1.589137 -5.503990 27.588339 -13.107545 29.777046 8.975151 -0.626994 7.430171 -8.544922 -0.001505 -0.009645 -3.732560 1.049750 38.170223 2.000000 -2.000000 0.000000 38.902405 -3.896495 74.891655 82.217766 -1.670842 8.668469 -4.080753 -22.964653 105.430237 -2.000000 2.000000 0.000000 86.526588 -22.637434 -15.978201 71.208038 0.507476 8.782153 -1.926983 -22.197752 19.501318 -34.576324 13.288415 15.601646 26.957106 -1.333813 -2.278668 12.380645 -6.537111 -1.802348 12.615631 -13.338990 -17.166241 30.088041 1.187646 2.425443 -27.355350 -39.562492 14.703000 
